<?xml version="1.0" encoding="UTF-8" standalone="no"?>
<!DOCTYPE svg PUBLIC "-//W3C//DTD SVG 1.1//EN" "http://www.w3.org/Graphics/SVG/1.1/DTD/svg11.dtd">
<svg xmlns="http://www.w3.org/2000/svg" version="1.1" viewBox="0.00 0.00 1000.00 250.00" width="1000.00" height="250.00">
<path fill="#242424" d="
  M 575.34 99.65
  L 575.34 73.32
  A 0.32 0.32 0.0 0 1 575.66 73.00
  L 608.60 73.00
  A 0.32 0.32 0.0 0 0 608.92 72.68
  L 608.92 46.50
  A 0.32 0.32 0.0 0 1 609.24 46.18
  L 636.51 46.18
  A 0.32 0.32 0.0 0 1 636.83 46.50
  L 636.83 72.68
  A 0.32 0.32 0.0 0 0 637.15 73.00
  L 672.22 73.00
  A 0.32 0.32 0.0 0 1 672.54 73.32
  L 672.54 99.64
  A 0.32 0.32 0.0 0 1 672.22 99.96
  L 637.15 99.96
  A 0.32 0.32 0.0 0 0 636.83 100.28
  L 636.83 175.80
  A 0.32 0.32 0.0 0 1 636.51 176.12
  L 609.24 176.12
  A 0.32 0.32 0.0 0 1 608.92 175.80
  L 608.92 100.29
  A 0.32 0.32 0.0 0 0 608.60 99.97
  L 575.66 99.97
  A 0.32 0.32 0.0 0 1 575.34 99.65
  Z"
/>
<path fill="#242424" d="
  M 818.98 46.17
  L 846.18 46.17
  A 0.31 0.31 0.0 0 1 846.49 46.48
  L 846.49 72.77
  A 0.31 0.31 0.0 0 0 846.80 73.08
  L 923.43 73.08
  A 0.31 0.31 0.0 0 1 923.74 73.39
  L 923.74 175.73
  A 0.31 0.31 0.0 0 1 923.43 176.04
  L 818.98 176.04
  A 0.31 0.31 0.0 0 1 818.67 175.73
  L 818.67 46.48
  A 0.31 0.31 0.0 0 1 818.98 46.17
  Z
  M 896.08 100.27
  A 0.43 0.43 0.0 0 0 895.65 99.84
  L 846.93 99.84
  A 0.43 0.43 0.0 0 0 846.50 100.27
  L 846.50 148.99
  A 0.43 0.43 0.0 0 0 846.93 149.42
  L 895.65 149.42
  A 0.43 0.43 0.0 0 0 896.08 148.99
  L 896.08 100.27
  Z"
/>
<path fill="#242424" d="
  M 224.70 203.33
  L 198.56 203.33
  A 0.47 0.47 0.0 0 1 198.09 202.86
  L 198.09 73.64
  A 0.47 0.47 0.0 0 1 198.56 73.17
  L 300.54 73.17
  A 0.47 0.47 0.0 0 1 301.01 73.64
  L 301.01 175.69
  A 0.47 0.47 0.0 0 1 300.54 176.16
  L 225.64 176.16
  A 0.47 0.47 0.0 0 0 225.17 176.63
  L 225.17 202.86
  A 0.47 0.47 0.0 0 1 224.70 203.33
  Z
  M 274.2977 100.4471
  A 0.37 0.37 0.0 0 0 273.9270 100.0777
  L 225.4471 100.1623
  A 0.37 0.37 0.0 0 0 225.0777 100.5330
  L 225.1623 149.0129
  A 0.37 0.37 0.0 0 0 225.5330 149.3823
  L 274.0129 149.2977
  A 0.37 0.37 0.0 0 0 274.3823 148.9270
  L 274.2977 100.4471
  Z"
/>
<path fill="#242424" d="
  M 499.94 73.19
  Q 515.39 73.19 551.60 73.16
  A 0.36 0.35 0.4 0 1 551.95 73.51
  L 551.95 175.65
  A 0.50 0.49 -0.0 0 1 551.45 176.14
  L 524.60 176.14
  A 0.30 0.30 0.0 0 1 524.30 175.84
  L 524.30 100.71
  A 0.61 0.60 1.2 0 0 523.71 100.11
  Q 522.72 100.07 499.94 100.07
  Q 477.16 100.07 476.17 100.11
  A 0.61 0.60 -1.2 0 0 475.58 100.71
  L 475.58 175.84
  A 0.30 0.30 0.0 0 1 475.28 176.14
  L 448.43 176.14
  A 0.50 0.49 -0.0 0 1 447.93 175.65
  L 447.93 73.51
  A 0.36 0.35 -0.4 0 1 448.28 73.16
  Q 484.49 73.19 499.94 73.19
  Z"
/>
<path fill="#242424" d="
  M 693.66 175.75
  L 693.66 114.24
  A 0.34 0.34 0.0 0 1 694.00 113.90
  L 768.49 113.90
  A 0.34 0.34 0.0 0 0 768.83 113.56
  L 768.83 100.22
  A 0.34 0.34 0.0 0 0 768.49 99.88
  L 693.99 99.88
  A 0.34 0.34 0.0 0 1 693.65 99.54
  L 693.65 73.53
  A 0.34 0.34 0.0 0 1 693.99 73.19
  L 794.78 73.19
  A 0.34 0.34 0.0 0 1 795.12 73.53
  L 795.12 175.75
  A 0.34 0.34 0.0 0 1 794.78 176.09
  L 694.00 176.09
  A 0.34 0.34 0.0 0 1 693.66 175.75
  Z
  M 768.7988 136.3769
  A 0.46 0.46 0.0 0 0 768.3380 135.9177
  L 719.8780 136.0023
  A 0.46 0.46 0.0 0 0 719.4189 136.4631
  L 719.4412 149.2831
  A 0.46 0.46 0.0 0 0 719.9020 149.7423
  L 768.3620 149.6577
  A 0.46 0.46 0.0 0 0 768.8211 149.1969
  L 768.7988 136.3769
  Z"
/>
<path fill="#242424" d="
  M 176.89 175.69
  A 0.50 0.50 0.0 0 1 176.39 176.19
  L 74.35 176.19
  A 0.50 0.50 0.0 0 1 73.85 175.69
  L 73.85 73.65
  A 0.50 0.50 0.0 0 1 74.35 73.15
  L 176.39 73.15
  A 0.50 0.50 0.0 0 1 176.89 73.65
  L 176.89 175.69
  Z
  M 150.10 100.32
  A 0.36 0.36 0.0 0 0 149.74 99.96
  L 100.98 99.96
  A 0.36 0.36 0.0 0 0 100.62 100.32
  L 100.62 149.08
  A 0.36 0.36 0.0 0 0 100.98 149.44
  L 149.74 149.44
  A 0.36 0.36 0.0 0 0 150.10 149.08
  L 150.10 100.32
  Z"
/>
<path fill="#242424" d="
  M 425.53 136.04
  L 349.75 136.04
  A 0.42 0.42 0.0 0 0 349.33 136.46
  L 349.33 149.03
  A 0.42 0.42 0.0 0 0 349.75 149.45
  L 425.52 149.45
  A 0.42 0.42 0.0 0 1 425.94 149.87
  L 425.94 175.74
  A 0.42 0.42 0.0 0 1 425.52 176.16
  L 323.08 176.16
  A 0.42 0.42 0.0 0 1 322.66 175.74
  L 322.66 73.60
  A 0.42 0.42 0.0 0 1 323.08 73.18
  L 425.53 73.18
  A 0.42 0.42 0.0 0 1 425.95 73.60
  L 425.95 135.62
  A 0.42 0.42 0.0 0 1 425.53 136.04
  Z
  M 399.0411 100.4534
  A 0.34 0.34 0.0 0 0 398.7017 100.1128
  L 349.6818 100.0272
  A 0.34 0.34 0.0 0 0 349.3412 100.3666
  L 349.3189 113.1866
  A 0.34 0.34 0.0 0 0 349.6583 113.5272
  L 398.6782 113.6128
  A 0.34 0.34 0.0 0 0 399.0188 113.2734
  L 399.0411 100.4534
  Z"
/>
</svg>
